<svg xmlns="http://www.w3.org/2000/svg" viewBox="0 0 100 100">
  <style>
    @keyframes spin {
      0% { transform: rotate(0deg); }
      100% { transform: rotate(360deg); }
    }
    @keyframes pulse {
      0%, 100% { opacity: 0.4; }
      50% { opacity: 1; }
    }
    .spinner {
      transform-origin: center;
      animation: spin 3s linear infinite;
    }
    .pulse {
      animation: pulse 2s ease-in-out infinite;
    }
  </style>
  
  <g class="spinner">
    <!-- Outer decorative border -->
    <path fill="none" stroke="#f1b057" stroke-width="2" 
          d="M50 10 L55 15 L45 15 L50 10
             M50 90 L45 85 L55 85 L50 90
             M10 50 L15 45 L15 55 L10 50
             M90 50 L85 55 L85 45 L90 50"/>
    
    <!-- Main geometric pattern -->
    <g fill="#f1b057">
      <!-- Stylized sunburst -->
      <path d="M50 20 L53 30 L47 30 Z" class="pulse"/>
      <path d="M50 80 L47 70 L53 70 Z" class="pulse"/>
      <path d="M20 50 L30 47 L30 53 Z" class="pulse"/>
      <path d="M80 50 L70 53 L70 47 Z" class="pulse"/>
      
      <!-- Diagonal elements -->
      <path d="M35 35 L42 38 L38 42 Z" class="pulse"/>
      <path d="M65 35 L62 42 L58 38 Z" class="pulse"/>
      <path d="M65 65 L58 62 L62 58 Z" class="pulse"/>
      <path d="M35 65 L38 58 L42 62 Z" class="pulse"/>
    </g>
    
    <!-- Center design -->
    <circle cx="50" cy="50" r="15" fill="none" stroke="#f1b057" stroke-width="3"/>
    <circle cx="50" cy="50" r="8" fill="#f1b057"/>
    
    <!-- Complete decorative circles -->
    <circle cx="50" cy="50" r="25" fill="none" stroke="#f1b057" stroke-width="1.5"/>
  </g>
</svg>
